# xmcd CD database file
#
# Track frame offsets:
#	150
#	11082
#	23725
#	34271
#	45454
#	57279
#	69415
#	79736
#	90399
#	101624
#	114765
#	125752
#	138634
#	148021
#	160286
#	170285
#	179527
#	189542
#	199135
#	208888
#	220975
#	231801
#	245449
#	255840
#
# Disc length: 3558 seconds
#
# Revision: 2
# Processed by: cddbd v1.5.2PL0 Copyright (c) Steve Scherf et al.
# Submitted via: CDex 1.77
#
DISCID=520de418
DTITLE=Hank Thompson - Seven classic albums cd2
DYEAR=2014
DGENRE=Country
TTITLE0=Baby i need lovin'
TTITLE1=Dusty skies
TTITLE2=Where my sweet baby used to walk
TTITLE3=The little rosewood casket
TTITLE4=Big beaver
TTITLE5=I'd do it again
TTITLE6=Panhandle rag
TTITLE7=A new deal of love
TTITLE8=Too in love
TTITLE9=Gloria
TTITLE10=This train
TTITLE11=When your love burns low
TTITLE12=Humpty dumpty heart
TTITLE13=Today
TTITLE14=Don't flirt with me
TTITLE15=The grass looks greener over yonder
TTITLE16=My front door is open
TTITLE17=Standing on the outside looking in now
TTITLE18=Whoa sailor
TTITLE19=Tomorrow night
TTITLE20=Swing wide your gate of love
TTITLE21=I find you cheatin' on me
TTITLE22=You remembered me
TTITLE23=I'll be your sweetheart for a day
EXTD=YEAR: 2014
EXTT0=
EXTT1=
EXTT2=
EXTT3=
EXTT4=
EXTT5=
EXTT6=
EXTT7=
EXTT8=
EXTT9=
EXTT10=
EXTT11=
EXTT12=
EXTT13=
EXTT14=
EXTT15=
EXTT16=
EXTT17=
EXTT18=
EXTT19=
EXTT20=
EXTT21=
EXTT22=
EXTT23=
PLAYORDER=
